<?xml version="1.0" encoding="utf-8"?>
<!-- Generator: Adobe Illustrator 18.0.0, SVG Export Plug-In . SVG Version: 6.00 Build 0)  -->
<!DOCTYPE svg PUBLIC "-//W3C//DTD SVG 1.1//EN" "http://www.w3.org/Graphics/SVG/1.1/DTD/svg11.dtd">
<svg version="1.1" id="Layer_1" xmlns="http://www.w3.org/2000/svg" xmlns:xlink="http://www.w3.org/1999/xlink" x="0px" y="0px"
	 viewBox="0 0 64 64" enable-background="new 0 0 64 64" xml:space="preserve">
<g>
	<g>
		<g>
			<path fill="#E5E5E5" d="M32,0c17.7,0,32,14.3,32,32S49.7,64,32,64S0,49.7,0,32S14.3,0,32,0z"/>
		</g>
	</g>
	<g>
		<g>
			<path fill="#1CD396" d="M45.8,14.7c4.9,4.6,7.7,10.8,7.7,17.3s-2.7,12.7-7.7,17.3c-0.2,0.2-0.4,0.3-0.7,0.3
				c-0.3,0-0.5-0.1-0.7-0.3c-0.4-0.4-0.4-1,0-1.4c4.5-4.2,7-9.9,7-15.9s-2.5-11.6-7-15.9c-0.4-0.4-0.4-1,0-1.4
				C44.8,14.3,45.4,14.3,45.8,14.7z"/>
		</g>
	</g>
	<g>
		<g>
			<path fill="#1CD396" d="M42.7,20.2C46.1,23.4,48,27.5,48,32s-1.9,8.7-5.2,11.8c-0.2,0.2-0.4,0.3-0.7,0.3c-0.3,0-0.5-0.1-0.7-0.3
				c-0.4-0.4-0.4-1,0-1.4c3-2.8,4.6-6.4,4.6-10.3s-1.6-7.6-4.6-10.4c-0.4-0.4-0.4-1,0-1.4C41.7,19.8,42.3,19.8,42.7,20.2z"/>
		</g>
	</g>
	<g>
		<g>
			<path fill="#1CD396" d="M39.7,25.8c3.3,3.4,3.3,9,0,12.4c-0.2,0.2-0.5,0.3-0.7,0.3c-0.2,0-0.5-0.1-0.7-0.3c-0.4-0.4-0.4-1,0-1.4
				c2.5-2.7,2.5-7,0-9.7c-0.4-0.4-0.4-1,0-1.4C38.7,25.4,39.3,25.4,39.7,25.8z"/>
		</g>
	</g>
	<g>
		<g>
			<circle fill="#2C444F" cx="31" cy="32" r="4"/>
		</g>
	</g>
	<g>
		<g>
			<path fill="#4C6C7C" d="M17,25v14h-6.4c-1.7,0-3-1.3-3-3v-8c0-1.7,1.3-3,3-3H17z"/>
		</g>
	</g>
	<g>
		<g>
			<polygon fill="#2C444F" points="29,14 29,50 15,39 15,25 			"/>
		</g>
	</g>
	<g>
		<g>
			<path fill="#1CD396" d="M32,36.3V50c0,1.1-0.9,2-2,2s-2-0.9-2-2v-0.8V14.8V14c0-1.1,0.9-2,2-2c0.5,0,1,0.2,1.4,0.6
				c0.4,0.4,0.6,0.9,0.6,1.4v13.7V36.3z"/>
		</g>
	</g>
</g>
</svg>
